<svg width="37" height="61" viewBox="0 0 37 61" fill="none" xmlns="http://www.w3.org/2000/svg">
<path fill-rule="evenodd" clip-rule="evenodd" d="M18.0594 0.509589C19.0005 0.456908 19.898 0.650073 20.8217 0.974941C20.7912 1.06204 20.7629 1.14765 20.7351 1.23176L20.7351 1.23176C20.6676 1.43593 20.6031 1.63129 20.5167 1.81784C20.2509 2.39295 19.9808 2.96805 19.7107 3.54315C19.4405 4.11826 19.1704 4.69336 18.9046 5.26847L18.9039 5.2701C18.7608 5.58031 18.6911 5.73136 18.5739 5.79504C18.4627 5.85548 18.3088 5.83723 18.0086 5.80165L17.9548 5.79528C17.6498 5.76016 17.4668 5.62846 17.4233 5.32993C17.4048 5.20421 17.3814 5.07786 17.358 4.9514L17.358 4.95136L17.358 4.95133L17.358 4.9513L17.3579 4.95127L17.3579 4.95123L17.3579 4.9512L17.3579 4.95117L17.3579 4.95113L17.3579 4.9511L17.3579 4.95107C17.293 4.60071 17.228 4.24938 17.2664 3.90753C17.3626 3.06287 17.5184 2.22366 17.674 1.38561L17.674 1.38556L17.674 1.38548L17.674 1.38539L17.674 1.38531L17.6741 1.38522L17.6741 1.38513L17.6741 1.38506L17.6741 1.385L17.6741 1.38497L17.6741 1.38494L17.6741 1.3849C17.7158 1.16039 17.7575 0.935963 17.798 0.711534C17.8154 0.632512 17.9635 0.518369 18.0594 0.509589ZM12.1872 3.35521L12.1874 3.35546L12.1874 3.35551L12.1875 3.35561C12.7652 4.22139 13.3305 5.06853 13.9205 5.90076C14.1383 6.21685 14.4346 6.49781 14.9139 6.30465C15.6459 6.02368 15.8289 5.83052 15.611 5.05786C15.3503 4.11869 15.5121 3.2156 15.6745 2.30935L15.6745 2.30933C15.6912 2.21583 15.708 2.12229 15.7243 2.02868C15.7853 1.69503 15.7766 1.32626 15.6981 0.992616C15.6633 0.834572 15.3496 0.597506 15.2276 0.623847C13.8944 0.957495 12.7267 1.61601 11.6113 2.49403C11.8055 2.7832 11.997 3.07022 12.1872 3.35521ZM8.76436 10.0505C9.37486 10.4996 9.98713 10.95 10.6103 11.4059C10.4011 12.4157 9.86087 12.9864 8.80648 13.1005C7.35126 13.2498 6.1226 12.6527 5.01593 11.7572C4.95494 11.7045 4.92879 11.5113 4.97236 11.4235C5.03633 11.2801 5.10001 11.1364 5.16372 10.9926L5.16433 10.9912L5.16513 10.9894L5.16537 10.9889L5.16607 10.9873L5.16609 10.9872L5.16611 10.9872L5.16612 10.9872L5.16614 10.9871L5.16616 10.9871L5.16617 10.9871L5.16619 10.987L5.16621 10.987L5.16623 10.987L5.16624 10.9869L5.16626 10.9869L5.16628 10.9869L5.16629 10.9868L5.16631 10.9868C5.44886 10.349 5.73207 9.70977 6.04417 9.08797C6.12798 8.91305 6.26524 8.76714 6.39664 8.62747L6.39667 8.62743C6.45654 8.56379 6.51519 8.50144 6.56701 8.43823C7.30643 8.97791 8.03295 9.5124 8.76202 10.0488L8.76354 10.0499L8.76384 10.0501L8.76436 10.0505ZM9.15402 15.4169C7.50709 15.0043 5.91244 14.6004 4.1958 14.1614C4.15907 14.3649 4.11803 14.575 4.0761 14.7897L4.07596 14.7904L4.07595 14.7904L4.07594 14.7905L4.07592 14.7906C3.99853 15.1867 3.91809 15.5985 3.85596 16.014C3.79633 16.4072 3.75697 16.8039 3.71685 17.2081L3.71684 17.2082L3.71682 17.2082L3.71681 17.2083L3.7168 17.2084L3.71679 17.2084L3.71678 17.2085L3.71677 17.2086L3.71675 17.2086L3.71674 17.2087L3.71673 17.2088L3.71672 17.2088V17.2088V17.2089V17.2089V17.209L3.71665 17.2096V17.2097C3.69231 17.4548 3.66769 17.7028 3.63811 17.9544C5.01491 18.6481 6.42656 18.8412 7.82079 18.0335C8.81417 17.4715 9.2063 16.5408 9.15402 15.4169ZM3.69906 20.0716C3.43764 21.4589 3.64677 22.7671 4.13475 24.0403C4.17832 24.1456 4.2916 24.2598 4.39617 24.2949C6.45265 24.9885 8.77056 23.6013 9.09297 21.7311C9.13654 21.4764 9.15397 21.2043 9.13654 20.9496C9.03197 19.8345 8.82284 19.6765 7.74232 19.8345L7.431 19.8801C6.6894 19.9889 5.94698 20.0978 5.19785 20.1594C4.86878 20.1835 4.53149 20.1497 4.18317 20.1147C4.02419 20.0988 3.8629 20.0826 3.69906 20.0716ZM9.55487 28.3061C10.252 26.8134 10.0341 25.7422 8.85776 24.8115C7.63781 25.7422 6.22616 26.0847 4.70994 26.1373C4.60537 26.1373 4.43109 26.2866 4.40495 26.4007C4.16967 27.5158 4.5008 28.508 5.11949 29.4211C5.16902 29.4932 5.26375 29.5303 5.37073 29.5722C5.43313 29.5966 5.4997 29.6226 5.5639 29.6582C5.53373 29.6785 5.50428 29.6987 5.47515 29.7188L5.47508 29.7188C5.40325 29.7683 5.33329 29.8164 5.25891 29.8601C3.67298 30.8172 2.39203 32.0728 1.63392 33.7849C0.640533 36.0414 0.283268 38.3682 1.1808 40.7652C1.34234 41.1961 1.49093 41.6348 1.63928 42.0727L1.63933 42.0729L1.63937 42.073L1.63942 42.0732L1.63947 42.0733L1.63951 42.0734L1.63956 42.0736L1.6396 42.0737L1.63965 42.0738L1.63969 42.074L1.63974 42.0741L1.63979 42.0743L1.63983 42.0744L1.63988 42.0745L1.63992 42.0747L1.63997 42.0748L1.64001 42.0749L1.64006 42.0751C1.76353 42.4396 1.88683 42.8036 2.01733 43.1622C2.45303 44.3739 2.48789 45.6206 2.13933 46.8323C1.11109 50.3707 2.07833 53.6194 3.44642 56.8242C3.56648 57.0921 3.76249 57.3344 3.95141 57.568L3.96054 57.5793C4.22195 57.9042 4.5618 58.0095 4.97135 57.8691C5.38091 57.7198 5.67718 57.4476 5.65975 57.0174C5.64232 56.4642 5.57261 55.9111 5.4419 55.3755C5.34179 54.95 5.21989 54.5288 5.098 54.1077L5.09798 54.1076L5.09796 54.1076L5.09794 54.1075L5.09793 54.1075L5.09791 54.1074L5.09789 54.1074L5.09788 54.1073L5.09786 54.1072L5.09784 54.1072L5.09782 54.1071L5.09781 54.1071L5.09779 54.107L5.09777 54.107L5.09776 54.1069L5.09774 54.1068L5.09772 54.1068L5.0977 54.1067L5.09769 54.1067L5.09767 54.1066L5.09765 54.1066L5.09764 54.1065L5.09762 54.1064L5.0976 54.1064L5.09758 54.1063L5.09757 54.1063L5.09755 54.1062L5.09753 54.1062L5.09752 54.1061L5.0975 54.106L5.09748 54.106L5.09746 54.1059L5.09745 54.1059L5.09743 54.1058L5.09741 54.1058C4.97552 53.6846 4.85362 53.2635 4.75351 52.838C4.47466 51.6351 4.83193 50.6429 5.80789 49.8966C5.84951 49.8659 5.89025 49.8342 5.93066 49.8028L5.93077 49.8027L5.93087 49.8027L5.93097 49.8026L5.93108 49.8025L5.93113 49.8025L5.93118 49.8024L5.93123 49.8024L5.93128 49.8023L5.93152 49.8022C6.01774 49.7352 6.10251 49.6693 6.1913 49.6156C7.66395 48.764 8.57019 47.4294 9.31959 45.9455C9.52885 45.5238 9.79966 45.131 10.0701 44.7388L10.0701 44.7387C10.1938 44.5594 10.3174 44.3801 10.435 44.1982L10.5395 44.2509C10.5918 44.4968 10.6452 44.7427 10.6986 44.9885C10.8587 45.7261 11.0188 46.4636 11.1495 47.2011C11.7333 50.4059 13.6155 52.8204 15.794 55.0682C16.0089 55.2933 16.2916 55.4587 16.5585 55.6148L16.5696 55.6213C16.9356 55.8408 17.3102 55.8408 17.6588 55.5511C18.0161 55.2525 18.1468 54.875 17.9899 54.4536C17.8331 54.0497 17.6327 53.6545 17.3887 53.2946C17.1356 52.9263 16.8625 52.5732 16.5894 52.2204C16.3547 51.9171 16.1201 51.614 15.8986 51.3014C14.8616 49.8439 14.8181 48.8166 15.8376 47.3591C16.648 46.1914 17.2057 44.9182 17.7024 43.5397C17.8411 43.6047 17.9774 43.6649 18.1108 43.7239L18.1109 43.7239L18.1109 43.7239L18.1111 43.724L18.1111 43.724L18.1112 43.724L18.1112 43.724L18.1113 43.7241L18.1113 43.7241L18.1114 43.7241L18.1114 43.7241L18.1115 43.7241L18.1115 43.7242L18.1117 43.7242C18.3385 43.8244 18.5572 43.921 18.7655 44.0314C20.9091 45.208 22.2249 47.0606 23.0091 49.3347C23.3277 50.2417 23.6022 51.1653 23.8764 52.0879L23.8764 52.0881L23.8766 52.0887C23.9474 52.3269 24.0182 52.5651 24.0897 52.8029C24.3424 53.6458 24.7519 54.3921 25.3096 55.0594C25.5224 55.3123 25.7348 55.5652 25.9472 55.818L25.9472 55.818L25.9474 55.8182C26.9442 57.0047 27.9392 58.1892 28.952 59.3617C29.2396 59.6953 29.5882 60.0114 29.9629 60.2485C30.6425 60.6787 31.3048 60.547 31.9322 59.9412C32.3853 59.5022 32.4637 58.9578 32.0542 58.2642C31.8192 57.8647 31.5163 57.5026 31.2182 57.1464L31.2182 57.1463L31.2181 57.1463L31.218 57.1462L31.2176 57.1457C31.1621 57.0794 31.1068 57.0133 31.0521 56.9471C30.8778 56.7364 30.6774 56.5345 30.4683 56.3589C28.6993 54.8399 28.2636 52.8292 28.3421 50.6254C28.3547 50.2553 28.3996 49.8853 28.4432 49.5254L28.4433 49.5253C28.4597 49.3899 28.4759 49.2559 28.4902 49.124C28.7632 49.0714 29.0329 49.0189 29.2967 48.9675L29.298 48.9673C29.7833 48.8727 30.2486 48.7821 30.6774 48.7025C30.8399 49.0632 30.9919 49.4318 31.1442 49.8011L31.1442 49.8012C31.4739 50.6004 31.8049 51.4029 32.2459 52.1356C32.8946 53.2156 33.6632 54.2208 34.4316 55.2258L34.432 55.2263L34.4321 55.2264L34.4321 55.2265C34.6131 55.4632 34.794 55.6998 34.9734 55.9374C35.2783 56.3413 35.6879 56.6662 36.2456 56.5345C36.5419 56.4642 36.7684 55.6564 36.6203 55.0857C36.4809 54.5501 36.3153 54.0058 36.0452 53.5316C34.8426 51.398 34.3808 49.0537 34.0584 46.6743C33.8928 45.4626 33.1783 44.9182 31.9758 45.1553C29.7276 45.6031 27.4707 45.8226 25.1789 45.6206C25.0221 45.6031 24.8653 45.568 24.7085 45.5329L24.7084 45.5328C23.0876 45.1465 22.4427 43.6363 23.2793 42.17C23.3054 42.1173 23.3316 42.0647 23.3751 42.0208C24.1542 41.2293 24.5764 40.2461 25.0004 39.2589C25.1503 38.91 25.3004 38.5606 25.4665 38.2189C25.7976 37.5516 26.425 36.9897 27.0263 36.498C27.7669 35.9009 28.6732 35.6024 29.6056 35.4005C29.7363 35.3741 29.928 35.2512 29.9541 35.1458C29.9803 35.0229 29.8757 34.7946 29.7711 34.742C29.7047 34.7104 29.6378 34.6778 29.5706 34.6452L29.5705 34.6451L29.5704 34.6451C29.1708 34.4507 28.7585 34.2502 28.3333 34.1976C27.6362 34.1098 26.913 34.1273 26.2072 34.1976C25.4229 34.2766 24.7258 34.0308 24.0722 33.7147C23.3751 33.381 22.7129 32.9244 22.0855 32.4679C20.3688 31.2123 18.6348 29.9919 16.6654 29.1577C14.5567 28.2534 12.3695 27.9548 10.1038 28.2885C9.93828 28.2709 9.75529 28.2797 9.55487 28.3061ZM19.1133 26.616C18.4161 27.055 17.658 27.2482 16.8389 27.2482C16.0547 27.2219 15.3053 27.0638 14.6692 26.5721C13.9633 26.0365 13.6932 25.2463 14.1028 24.4824C14.3642 24.0017 14.7285 23.5803 15.0929 23.1588C15.2143 23.0184 15.3358 22.8779 15.4534 22.7352C15.5144 22.6649 15.6625 22.6386 15.7671 22.6474C17.658 22.8318 19.122 24.14 19.4618 25.7907C19.549 26.1946 19.4357 26.4141 19.1133 26.616ZM9.65027 4.03198C10.6437 4.78708 12.0379 6.508 12.9877 8.13234L12.8897 8.2573C12.6649 8.54372 12.4526 8.81423 12.247 9.09817C12.064 9.35279 11.8462 9.41426 11.5325 9.31767C9.9204 8.79964 8.81373 7.64065 7.64607 6.39386C8.32575 5.59486 8.98801 4.81342 9.65027 4.03198ZM23.2441 9.42381C23.9622 8.80061 24.8368 8.69169 25.7166 8.58212L25.7166 8.58211L25.7167 8.5821L25.7167 8.5821L25.7168 8.58209L25.7168 8.58209L25.7168 8.58208L25.7169 8.58208L25.7169 8.58207L25.717 8.58206L25.717 8.58206L25.7171 8.58205C25.9155 8.55734 26.1142 8.53259 26.3114 8.50189C26.7646 8.43165 27.2177 8.29995 27.6534 8.15946C27.7492 8.12434 27.8886 7.94874 27.8712 7.86094C27.7405 6.99169 27.4704 6.17513 26.7471 5.6132C26.6251 5.51662 26.4247 5.45516 26.2853 5.47272C25.2222 5.63954 24.2375 6.00831 23.3574 6.63171C23.2528 6.71073 23.1483 6.78975 23.0524 6.87755C22.1462 7.72045 22.2072 8.6775 23.2441 9.42381ZM23.5844 23.8298C22.7043 22.2494 18.8702 20.7392 17.8768 21.5909C17.8768 21.6172 17.8768 21.6611 17.8942 21.6699C19.0793 22.706 19.9333 24.0142 20.7611 25.34C20.9615 25.6649 21.1619 25.6825 21.4756 25.5771C22.2076 25.3313 23.0441 24.6464 23.5844 23.8298ZM29.4392 40.8709C29.3085 41.547 29.0384 41.7489 28.3413 41.7665C28.2188 41.7435 28.0963 41.7252 27.9744 41.7071C27.7235 41.6696 27.4751 41.6326 27.2346 41.5557C26.4503 41.3187 26.1105 40.7655 26.2586 39.949C26.3109 39.6504 26.4242 39.3607 26.5549 39.0885C27.0255 38.1315 27.801 37.4554 28.6898 36.911C28.9948 36.7266 29.3608 36.6125 29.7093 36.551C29.8704 36.5198 30.0492 36.5641 30.2267 36.608C30.2989 36.6259 30.3708 36.6437 30.4413 36.6564C30.4266 36.7208 30.4153 36.7888 30.4039 36.857C30.3751 37.0306 30.3459 37.2064 30.2583 37.3325C29.7529 38.0612 29.6048 38.8778 29.5612 39.7382C29.5438 40.1158 29.5089 40.5021 29.4392 40.8709ZM27.8271 39.589C27.4437 39.589 27.1039 39.9314 27.1126 40.3177C27.1148 40.4173 27.1375 40.5119 27.1764 40.5975C27.1381 40.5124 27.1157 40.4186 27.1135 40.3198C27.1135 39.9335 27.4447 39.5911 27.8281 39.5911C28.1112 39.5911 28.358 39.7604 28.4701 40.0066C28.3585 39.7593 28.1111 39.589 27.8271 39.589ZM23.5057 11.861C23.8451 11.8893 24.1823 11.9173 24.5179 11.9451L24.5181 11.9452L24.5186 11.9452C25.8456 12.0554 27.146 12.1633 28.4465 12.2824C28.8299 12.3175 28.9519 12.1683 28.9868 11.8083C29.0565 11.0356 28.7951 10.4298 28.1502 10.0083C27.061 9.30592 25.1178 9.42884 24.1244 10.2717C23.619 10.6932 23.4011 11.2288 23.5057 11.861ZM22.7217 1.75488C23.7674 2.3256 24.7608 2.90509 25.4579 3.89726C23.8546 4.84552 22.3035 5.76744 20.7524 6.69815C20.4648 6.24157 20.43 5.93427 20.6391 5.29331C21.0367 4.05881 21.7894 3.02984 22.5524 1.98667L22.5527 1.98626L22.553 1.98584L22.5534 1.98533L22.554 1.98452L22.5541 1.98429L22.5542 1.98426C22.61 1.90791 22.6659 1.83148 22.7217 1.75488ZM20.3516 19.9945C21.4385 20.3668 22.3119 21.0397 23.2022 21.7256C23.7394 22.1395 24.2827 22.5581 24.8829 22.9183C24.965 22.7879 25.0468 22.6586 25.1282 22.5301L25.1283 22.53C25.4523 22.0179 25.7685 21.5183 26.068 21.013C26.1115 20.9427 26.0854 20.7408 26.0157 20.6881C24.8829 19.7925 23.6629 19.0725 22.1728 19.0023C21.4322 18.9847 20.7699 19.1779 20.3516 19.9945ZM28.6388 14.1647C28.6214 14.884 28.6035 15.6207 28.1421 16.226C27.961 16.166 27.7819 16.1053 27.6039 16.045C27.1313 15.8849 26.6674 15.7278 26.1989 15.5938C25.3711 15.3743 24.5433 15.1724 23.7067 14.988C23.393 14.9177 23.3233 14.7597 23.3669 14.4612C23.4802 13.6358 24.0466 13.1266 25.0051 13.0915C26.2338 13.0388 27.3666 13.4514 28.4733 13.9431C28.5517 13.9783 28.6388 14.0924 28.6388 14.1626L28.6388 14.1647ZM25.0536 41.5062L25.0533 41.5066L25.0528 41.5072C24.8811 41.715 24.7231 41.9062 24.5676 42.0999C24.5142 42.1665 24.4585 42.2316 24.403 42.2966L24.4029 42.2967C24.2684 42.4542 24.1347 42.6107 24.036 42.7847C23.7136 43.3466 23.8705 43.9613 24.463 44.2159C24.9336 44.4178 25.4564 44.5495 25.9618 44.6022C27.3125 44.7515 28.6457 44.6198 29.9528 44.2247C29.8657 43.6101 29.5868 43.3291 28.9768 43.2676C28.6723 43.2402 28.3645 43.2299 28.0574 43.2197L28.0573 43.2196L28.0571 43.2196L28.0569 43.2196C27.8721 43.2134 27.6875 43.2073 27.5042 43.1974C26.3191 43.1271 26.1274 42.9427 25.8921 41.7838C25.8512 41.5895 25.7711 41.3991 25.686 41.1968L25.686 41.1968C25.6442 41.0974 25.6012 40.9952 25.561 40.8882C25.3751 41.1171 25.2087 41.3185 25.0536 41.5062ZM26.66 19.4215C25.2658 18.6927 23.8454 18.0606 22.2682 17.7445C22.4947 16.6206 23.2354 16.1201 24.4031 16.2694C25.5795 16.4099 26.6251 16.9016 27.5837 17.5777C27.6795 17.6479 27.8015 17.8059 27.7754 17.8762C27.5837 18.3679 27.3832 18.8684 27.1305 19.3337C27.0783 19.4215 26.7733 19.483 26.66 19.4215ZM30.4859 39.0281C30.4859 39.9412 30.6341 40.0905 31.3312 39.9588C31.6187 39.9061 31.9237 39.7832 32.159 39.6076C33.0652 38.9315 33.3179 37.2984 32.6905 36.394C32.5424 36.1833 32.4117 36.0955 32.1677 36.2711C31.1569 37.0174 30.5295 37.9569 30.4859 39.0281Z" fill="#20113D"/>
</svg>
