<svg width="81" height="61" viewBox="0 0 81 61" fill="none" xmlns="http://www.w3.org/2000/svg">
<path fill-rule="evenodd" clip-rule="evenodd" d="M29.3148 37.7528C26.0306 38.7463 22.721 38.5935 19.3859 36.3771C19.1298 36.6994 18.8673 37.0237 18.6022 37.3513C17.945 38.1635 17.2713 38.996 16.6364 39.8673C16.1654 40.5424 15.7262 41.2429 15.2871 41.9435L15.2871 41.9436C14.8479 42.6441 14.4087 43.3447 13.9378 44.0198C12.894 45.5228 12.5121 47.1533 12.6139 48.962C12.7412 51.2803 11.8247 52.4522 9.55886 52.8598C4.89993 53.7005 0.724711 50.2358 0.699252 45.5228C0.699252 45.0626 0.691045 44.6024 0.682867 44.1438C0.670673 43.4601 0.658546 42.7801 0.673784 42.1091C0.71659 40.3101 1.49714 38.7451 2.27419 37.1871C2.42143 36.8919 2.56854 36.5969 2.71048 36.3007C3.07779 35.5386 3.44854 34.7776 3.81932 34.0165C5.19609 31.1906 6.57334 28.3637 7.77676 25.4736C9.54572 21.2379 12.2031 17.5949 14.8699 13.939C15.427 13.1752 15.9846 12.4108 16.5345 11.6404C16.5609 11.6074 16.589 11.5744 16.6174 11.541L16.6176 11.5408L16.6176 11.5408L16.6177 11.5407L16.6177 11.5407L16.6177 11.5407C16.699 11.4451 16.7835 11.3459 16.84 11.2328C19.8187 5.80649 25.1141 4.53271 30.5623 3.46274C31.9058 3.20329 33.2385 2.87832 34.5703 2.55354C36.1154 2.17676 37.6595 1.80023 39.2182 1.52659C42.0696 1.01708 44.9973 0.609472 47.8996 0.50757C51.3365 0.380192 54.2388 1.98515 56.8101 4.20152C52.915 2.21443 48.7398 1.5266 44.4118 1.6285C43.3171 1.65397 42.2223 1.75588 41.1276 1.88325C39.5492 2.06158 38.8872 3.23345 38.4545 4.58365C37.3343 8.02285 37.5634 11.4111 38.76 14.8248C39.0483 15.645 39.2281 16.5104 39.4072 17.3725L39.4072 17.3726L39.4073 17.3726L39.4073 17.3727L39.4073 17.3727C39.5286 17.9566 39.6496 18.539 39.8038 19.1047C40.0004 19.8097 40.1923 20.517 40.3843 21.2247L40.3845 21.2253C41.0875 23.8162 41.7917 26.4117 42.7315 28.9128C43.1134 29.9573 44.3863 30.9763 45.481 31.3839C49.7836 32.9379 54.1879 33.7786 58.745 32.2246C64.4732 30.263 67.4264 24.1489 65.2624 18.4678C64.569 16.6681 63.7465 14.9238 62.9205 13.172L62.9205 13.172L62.9205 13.1719C62.776 12.8655 62.6314 12.5589 62.4874 12.2518C62.3556 11.969 62.0843 11.7421 61.8181 11.5193L61.818 11.5193C61.7245 11.441 61.6315 11.3632 61.5455 11.2837C61.2162 10.9711 60.8729 10.667 60.5287 10.3619C59.8348 9.74704 59.1369 9.12859 58.5413 8.43047C57.7012 7.43692 57.7267 6.18862 58.465 5.11865C59.1778 4.07415 60.3234 3.8194 61.52 4.02321C63.3785 4.32891 64.575 5.4753 65.1861 7.18216C65.7716 8.83807 65.2115 10.2647 63.7604 11.513C65.6698 13.0925 66.3062 15.3598 66.8663 17.6017C67.0784 18.4505 67.1923 19.3266 67.3065 20.2047V20.2048C67.4391 21.2242 67.572 22.2464 67.8592 23.2317C68.3388 24.8635 68.9143 26.4731 69.4904 28.0844C69.9846 29.4667 70.4793 30.8502 70.9142 32.2501C71.4791 34.0423 71.9992 35.8493 72.519 37.6552L72.5192 37.6559C72.9598 39.187 73.4002 40.7171 73.8674 42.2365C74.1278 43.0833 74.461 43.9092 74.7939 44.7343L74.794 44.7345L74.794 44.7347L74.7941 44.7349L74.7943 44.7353C74.982 45.2007 75.1697 45.6658 75.3441 46.1343C75.902 47.6159 77.1654 48.2831 78.4176 48.9444C78.651 49.0676 78.884 49.1906 79.1119 49.3187C80.283 49.9811 80.894 50.8472 80.5885 52.2229C80.3085 53.5222 79.4684 54.3374 77.9154 54.2864C74.733 54.159 71.5762 53.8533 68.4193 53.5222C67.8847 53.4712 67.3246 52.9107 66.9427 52.4522C64.8042 49.8792 62.6911 47.2807 60.6035 44.6821C59.1523 42.8734 58.0831 40.8863 57.523 38.619C57.285 37.686 56.7996 36.7995 56.3199 35.9232C56.1839 35.6748 56.0484 35.4273 55.9191 35.1798C55.7918 34.925 55.4354 34.6957 55.1553 34.6448L54.9543 34.6049C53.3414 34.2841 51.7369 33.9649 50.3437 35.3836C49.989 35.7638 49.4074 35.9675 48.9 36.1452L48.8925 36.1478C48.0015 36.4536 47.5941 37.014 47.9251 37.8802C49.0995 41.0311 49.0108 44.2504 48.9219 47.4771V47.4772C48.8779 49.0767 48.8337 50.6781 48.9434 52.2739C48.9887 52.8853 49.0742 53.4967 49.1597 54.1081C49.2665 54.8724 49.3734 55.6366 49.4017 56.4009C49.4271 56.9868 49.1726 57.8275 48.7652 58.1332C45.3792 60.6808 41.5859 61.1139 37.6907 59.7127C35.7558 58.9994 34.4574 57.5982 34.1519 55.2035C33.5664 50.2358 32.7772 45.2936 31.7588 40.4023C31.3921 38.5674 30.5095 36.8152 29.6498 35.1084L29.6497 35.1083L29.6497 35.1082L29.6496 35.108C29.5545 34.9191 29.4596 34.7308 29.3657 34.5429C26.9217 29.6771 26.2343 24.6329 27.0999 19.2321C27.8127 14.7484 28.7802 10.4685 31.7588 6.92741C32.3732 6.20415 33.103 5.58356 33.8298 4.96544L33.83 4.96534L33.83 4.96527L33.8301 4.96525C34.1272 4.71254 34.4239 4.46025 34.712 4.20152C34.7556 4.16416 34.8022 4.12832 34.8492 4.09214C34.9946 3.98031 35.1443 3.86525 35.2212 3.69201C31.3006 3.74296 27.7618 4.83842 24.274 6.46885C21.0066 7.96825 19.1343 10.6423 17.2384 13.3498L17.2384 13.3498C16.815 13.9544 16.3905 14.5607 15.949 15.156C15.7708 15.4108 15.7708 15.8438 15.7962 16.2005C16.1701 19.7668 17.5442 23.0158 18.9156 26.258L19.004 26.4671C19.2768 27.0858 19.4197 27.7695 19.5626 28.4532C19.6197 28.7267 19.6769 29.0001 19.7423 29.2695C19.8951 29.9573 20.0478 30.6706 20.0988 31.3839C20.1091 31.5289 20.1204 31.6749 20.1317 31.8215C20.204 32.7563 20.2783 33.7164 20.1242 34.6193C19.8187 36.2243 19.946 36.7083 21.6008 36.9631C22.126 37.0156 22.6554 37.0682 23.1872 37.1209L23.2 37.1222L23.2079 37.123L23.2138 37.1236C25.2516 37.3258 27.3229 37.5313 29.3148 37.7528ZM41.5863 13.8343C40.1097 13.2229 39.4987 11.7708 39.2951 10.0639C39.0659 8.20419 40.7462 5.88592 42.7065 5.19808C44.2595 4.66309 46.449 5.52926 47.3145 7.05779C47.8237 7.97491 48.0274 8.71371 46.9072 9.50345C45.6398 10.3913 44.4625 11.395 43.1921 12.4781C42.6763 12.9179 42.1451 13.3708 41.5863 13.8343ZM46.4227 21.6525C45.9645 23.665 47.2629 25.27 48.8413 25.1426C48.9842 24.6868 49.1209 24.2404 49.2556 23.8001C49.505 22.9853 49.748 22.1915 50.0124 21.3977C50.0824 21.1992 50.1792 21.0061 50.2757 20.8134L50.2757 20.8134L50.2757 20.8134C50.3898 20.5856 50.5035 20.3585 50.5725 20.1239C50.7762 19.3851 51.0053 18.4171 50.0633 18.1878C49.3759 18.0349 48.2812 18.2642 47.8484 18.7483C47.161 19.5125 46.6519 20.608 46.4227 21.6525ZM55.5104 18.7999C55.6241 18.6482 55.7287 18.483 55.8318 18.3203C56.0748 17.9367 56.3088 17.5673 56.6306 17.4242C56.9616 17.2713 57.6744 17.5771 58.0308 17.8828C58.1094 17.9504 58.1883 18.0181 58.2673 18.0859L58.2673 18.0859C59.1109 18.8094 59.9715 19.5474 60.5767 20.4558C60.9076 20.9908 60.7803 21.9843 60.5512 22.6467C60.373 23.1307 59.7111 23.6402 59.2019 23.7421C58.8709 23.7931 58.3363 23.1817 58.0054 22.7741C57.4453 22.0862 56.9615 21.3729 56.4778 20.6086C56.2314 20.2739 56.0458 19.8905 55.8284 19.4414L55.8284 19.4414C55.7314 19.2411 55.6282 19.0278 55.5104 18.7999ZM56.8456 27.9533L56.8603 27.9444C56.853 27.9009 56.8437 27.8553 56.8341 27.8083C56.81 27.69 56.7839 27.5624 56.7839 27.4349C56.6481 27.4009 56.5124 27.3556 56.3766 27.3103C56.105 27.2197 55.8335 27.1292 55.5619 27.1292C54.5181 27.1292 53.4743 27.1546 52.4559 27.282C52.0486 27.333 51.5649 27.6132 51.3867 27.9189C51.2848 28.0972 51.6158 28.6577 51.8959 28.9124C52.0446 29.0613 52.2628 29.1144 52.4845 29.1685C52.6424 29.207 52.802 29.2459 52.9397 29.3201C53.2197 29.4729 53.7289 29.7786 53.7034 29.906C53.6016 30.2626 53.347 30.6193 53.0415 30.8741C52.8936 31.0056 52.682 31.0523 52.4205 31.1099C52.2769 31.1416 52.1182 31.1765 51.9468 31.2307C52.935 31.1659 53.851 31.101 54.767 31.0362C55.2906 30.9991 55.8141 30.9621 56.3511 30.925C56.0505 30.7913 55.7061 30.7508 55.3745 30.7118C54.695 30.6319 54.069 30.5582 53.9835 29.7022C55.0217 29.0687 55.934 28.5108 56.8456 27.9533Z" fill="#20113D"/>
</svg>
