<svg width="65" height="61" viewBox="0 0 65 61" fill="none" xmlns="http://www.w3.org/2000/svg">
<path d="M19.8581 54.5723C24.1925 53.5812 26.9329 50.7994 29.7091 47.8438C29.333 47.7395 29.0464 47.6525 28.7598 47.583C24.9448 46.6441 21.4342 45.0446 18.2103 42.8713C16.2221 41.5326 14.5922 39.8461 13.3564 37.7945C13.1952 37.5337 13.0698 37.2555 12.9444 36.9774C12.9086 36.9078 12.9086 36.8209 12.8728 36.5775C14.0907 36.9426 15.237 37.2903 16.3654 37.638C16.4013 37.6033 16.4192 37.5859 16.455 37.5511C16.3296 37.4468 16.2221 37.3425 16.0968 37.2555C14.6281 36.3341 13.1952 35.3778 11.7086 34.5085C10.007 33.5001 8.21594 32.6308 6.56813 31.5876C4.36508 30.1793 2.80682 28.1973 1.67843 25.9023C1.6247 25.798 1.60679 25.6937 1.58888 25.5894C1.57097 25.5372 1.58888 25.4676 1.58888 25.3112C3.4158 26.0762 5.11734 27.1541 7.23084 26.9629C3.07549 24.6505 0.496311 21.4167 0.67542 16.5485C2.44861 18.4436 4.18597 20.3213 5.92334 22.199C5.95916 22.1643 6.01289 22.1121 6.04871 22.0773C5.33227 20.7212 4.49046 19.3998 3.95313 17.9742C3.4158 16.5485 3.05758 15.0011 2.87847 13.4885C2.69936 11.9759 2.84265 10.4285 2.84265 8.89854C2.9322 8.88115 3.02176 8.88116 3.0934 8.86377C3.93522 10.7067 4.77703 12.5497 5.61885 14.41C5.7084 14.41 5.79796 14.3926 5.88751 14.3926C5.85169 11.0371 6.22782 7.75105 7.8219 4.74322C7.89354 4.74322 7.96519 4.74323 8.03683 4.76061C8.03683 5.50822 8.07265 6.23844 8.03683 6.98605C7.83981 10.6546 9.2906 13.7841 11.4578 16.6354C12.9086 18.5305 14.6997 20.1127 16.6341 21.5384C19.1775 23.4161 22.0253 24.7896 24.8731 26.1457C27.524 27.3975 29.8524 29.1014 32.0375 31.0139C33.3629 32.1788 34.7421 33.2741 36.1033 34.4042C36.4795 34.7171 36.8556 35.0649 37.2855 35.4474C37.984 33.8826 38.6288 32.4222 39.2736 30.9443C40.8318 27.4323 43.1782 24.4766 46.0797 21.9209C48.3903 19.8867 50.7366 17.922 53.0471 15.9052C56.1815 13.1582 58.1338 9.75047 58.7607 5.68208C58.9935 4.23902 58.8861 2.72642 58.9398 1.26597C58.9398 1.02256 58.9398 0.761771 59.0294 0.500977C60.1578 3.0046 60.4802 5.64731 60.7488 8.39434C61.8593 6.20367 62.9519 4.013 64.0624 1.80495C64.1519 1.82233 64.2415 1.83972 64.3131 1.8571C64.1877 4.09993 64.1698 6.34276 63.9012 8.5682C63.6325 10.7763 63.1131 12.9495 62.7011 15.0533C63.2564 14.2187 63.9012 13.2625 64.6534 12.1672C64.7072 14.3057 64.6355 16.2355 63.7041 18.0611C62.7907 19.8693 61.322 21.2254 59.7279 22.5641C60.6055 22.738 61.3041 22.4424 61.9847 22.1121C62.6474 21.7991 63.2564 21.4167 64.0265 20.982C63.9549 21.3123 63.9191 21.5384 63.8474 21.747C62.8802 24.2854 61.3757 26.4761 59.1189 28.093C57.7398 29.1014 56.2711 29.9881 54.9099 30.9965C54.0501 31.6398 53.4412 32.0397 53.4053 32.9264C53.9785 32.7351 54.5337 32.5612 55.1964 32.3526C54.0859 36.0385 51.1485 38.2987 48.5873 40.9414C48.838 41.0457 49.035 41.1153 49.2321 41.2022C50.5037 41.7064 51.5784 42.4714 52.3128 43.6189C52.868 44.4708 52.9934 45.3749 52.7605 46.3659C52.6889 46.6615 52.868 47.0614 53.065 47.3222C53.674 48.2263 53.7635 49.1477 53.2262 50.0866C52.7068 51.0081 51.8471 51.4601 50.7187 51.5297C51.6142 49.9649 51.5784 49.6172 50.3605 48.7826C50.2351 49.4259 50.1097 50.0344 49.9843 50.6777C49.1783 50.0344 48.4798 49.2694 47.6022 48.8174C46.7066 48.3654 45.6499 48.2437 44.5752 47.9481C44.6289 48.1741 44.629 48.3132 44.6827 48.4349C45.4708 50.3648 46.2051 52.3294 47.1007 54.2245C47.4231 54.92 48.0679 55.5111 48.6589 56.0327C49.2142 56.5195 49.6082 56.3457 49.8231 55.6328C49.9664 55.1286 50.0201 54.607 50.1097 54.1028C50.1993 53.6508 50.45 53.4595 50.7724 53.5986C50.8441 54.0159 50.9336 54.3462 50.9515 54.6766C50.9694 55.0243 50.9694 55.3894 50.8978 55.7198C50.8261 56.0153 50.6291 56.2935 50.4858 56.5717C50.5217 56.6238 50.5754 56.6586 50.6112 56.7108C51.0948 56.3978 51.5963 56.0849 52.062 55.7545C52.2948 55.5807 52.474 55.3546 52.6889 55.1634C53.5307 54.4158 53.9427 54.4679 54.5337 55.459C54.2113 55.4242 53.9247 55.372 53.6203 55.3373C53.5665 56.6238 52.1695 56.6064 51.5963 57.4758C52.2769 57.441 52.8859 57.3888 53.4949 57.3888C54.4263 57.3888 54.8024 57.8061 54.6233 58.7276C54.3546 58.1017 53.9068 58.1886 53.477 58.3625C52.5635 58.7276 51.6321 58.6059 50.7008 58.4842C49.6798 58.3451 48.7664 58.4842 47.8887 59.0753C47.3156 59.4752 46.7245 59.8577 45.9006 59.6838C45.7215 59.649 45.3991 60.2228 45.1663 60.501C44.7901 60.0142 44.8081 59.5447 45.4349 59.1622C45.829 58.9188 46.2947 58.7971 46.7245 58.6233C46.9932 58.5189 47.2798 58.432 47.5126 58.2581C48.032 57.8756 48.032 57.6322 47.5305 57.2497C46.2947 56.2761 45.0588 55.3199 43.823 54.3462C43.7155 54.2593 43.5901 54.1898 43.4826 54.1724C41.8527 54.0333 40.9572 52.9901 40.2766 51.7209C40.1333 51.4427 40.0258 51.0602 39.6318 51.3036C39.4169 51.4427 39.184 51.86 39.2557 52.0686C39.6318 53.4422 40.4557 54.5201 41.7274 55.2155C42.2826 55.1286 42.3901 53.8073 43.1782 54.607C43.1065 54.9026 43.0528 55.0765 43.017 55.2503C43.2319 55.2851 43.4647 55.372 43.6797 55.3546C44.0379 55.3546 44.3961 55.2851 44.7543 55.2503C44.7722 55.3199 44.7901 55.4068 44.8081 55.4763C44.5573 55.598 44.3066 55.7198 43.9662 55.8936C45.6857 55.9805 45.6857 55.9805 45.7573 56.8672C45.2021 56.3457 44.6648 56.7629 44.1274 56.8325C42.9095 56.9716 42.0677 57.5279 41.6199 58.6928C41.4766 59.0579 41.0826 59.3187 40.7244 59.7186C40.7423 59.7708 40.796 59.9446 40.8318 60.1359C40.0617 59.8751 39.8825 59.51 40.2587 58.8493C40.5452 58.3451 40.9214 57.8756 41.2617 57.3888C41.5662 56.9542 41.5662 56.5891 40.993 56.3457C40.0616 55.9458 39.2736 55.3025 38.181 55.1982C37.7691 55.1634 37.4108 54.6244 36.9989 54.2767C36.8019 54.5896 36.5332 54.9548 36.3183 55.372C35.6914 56.6065 34.6346 57.3541 33.3092 57.7018C29.136 58.8145 25.1955 58.1886 21.5238 55.9805C20.9148 55.6328 20.467 55.0938 19.8581 54.5723Z" fill="#20113D"/>
</svg>
